<?xml version="1.0" standalone="no"?>
<svg viewBox="0 0 200 200" xmlns="http://www.w3.org/2000/svg">
  <path fill="#59C3E0" d="M29.5,-54.9C34.2,-48.4,31.3,-32.4,35.4,-21.6C39.6,-10.9,50.8,-5.4,48.8,-1.2C46.8,3.1,31.5,6.2,23.1,9.7C14.8,13.1,13.3,16.8,10.6,26.7C7.9,36.6,4,52.7,-5.3,61.9C-14.6,71,-29.1,73.4,-36.3,66.1C-43.5,58.8,-43.3,41.8,-49.1,29.2C-55,16.6,-66.8,8.3,-64.4,1.4C-62,-5.5,-45.3,-11,-38.6,-22.2C-32,-33.3,-35.3,-50.1,-30.5,-56.6C-25.7,-63.1,-12.9,-59.2,-0.2,-58.8C12.4,-58.4,24.8,-61.4,29.5,-54.9Z" transform="translate(100 100)" />
</svg>
