<?xml version="1.0" standalone="no"?>
<svg viewBox="0 0 200 200" xmlns="http://www.w3.org/2000/svg">
  <path fill="#59C3E0" d="M40.9,-64.4C48.8,-58.5,48.1,-40.1,51,-25.7C53.8,-11.2,60.3,-0.8,61.3,10.5C62.3,21.9,58,34.2,51.2,47.3C44.4,60.4,35.2,74.4,24.6,72.4C14,70.3,2,52.1,-11.6,45.5C-25.3,38.8,-40.6,43.6,-53.9,40.1C-67.2,36.6,-78.5,24.8,-74.8,14.1C-71.2,3.4,-52.6,-6,-38.1,-9C-23.6,-11.9,-13.3,-8.2,-7.6,-15.1C-1.9,-22.1,-1,-39.6,7.8,-51.7C16.5,-63.8,33,-70.3,40.9,-64.4Z" transform="translate(100 100)" />
</svg>
