<?xml version="1.0" standalone="no"?>
<svg viewBox="0 0 200 200" xmlns="http://www.w3.org/2000/svg">
  <path fill="#59C3E0" d="M31.7,-62.4C39.1,-50.7,41.6,-38.1,52,-27.5C62.3,-17,80.5,-8.5,84.5,2.3C88.6,13.2,78.6,26.4,66.5,33.9C54.4,41.5,40.3,43.3,28.8,41.3C17.4,39.3,8.7,33.4,-2.5,37.7C-13.7,42,-27.3,56.5,-37.2,57.6C-47,58.7,-52.9,46.3,-49.1,34.5C-45.3,22.7,-31.7,11.3,-26.1,3.2C-20.6,-4.9,-23,-9.8,-24.1,-16.9C-25.2,-24.1,-25,-33.5,-20.7,-47C-16.5,-60.6,-8.3,-78.3,2,-81.7C12.2,-85.1,24.4,-74.2,31.7,-62.4Z" transform="translate(100 100)" />
</svg>
