<?xml version="1.0" standalone="no"?>
<svg viewBox="0 0 200 200" xmlns="http://www.w3.org/2000/svg">
  <path fill="#59C3E0" d="M29.7,-42.5C34.5,-43.2,31.5,-28.1,41,-16.1C50.6,-4.1,72.8,4.8,69.7,8.4C66.6,12,38.3,10.3,26.5,21.7C14.7,33.1,19.4,57.5,16.3,60.9C13.1,64.4,2.2,46.9,-4.6,35.8C-11.5,24.6,-14.3,19.7,-20.4,15.9C-26.5,12.1,-35.8,9.3,-43.6,2C-51.3,-5.3,-57.4,-17.2,-52.9,-22.9C-48.3,-28.6,-33,-28.1,-22.4,-24.7C-11.8,-21.3,-5.9,-15,3.3,-20.1C12.5,-25.2,25,-41.8,29.7,-42.5Z" transform="translate(100 100)" />
</svg>
