<svg xmlns="http://www.w3.org/2000/svg" width="512" height="512" viewBox="0 0 512 512">
<g>
<path d="M 70.00,510.89 C38.32,506.12 11.82,481.78 4.50,450.76 C2.26,441.25 2.54,423.14 5.07,413.46 C18.81,361.02 80.39,337.71 125.05,368.03 L 131.25,372.24 L 141.27,362.22 L 151.29,352.19 L 145.19,344.09 C129.22,322.90 119.91,300.50 116.84,275.87 L 115.61,266.00 L 105.41,266.00 L 95.22,266.00 L 94.59,269.39 C92.59,280.01 81.49,293.66 70.41,299.12 C42.87,312.68 9.90,295.40 4.82,264.75 C-0.09,235.12 27.53,207.74 57.19,212.83 C74.71,215.83 88.85,228.11 94.01,244.80 L 95.77,250.50 L 105.57,250.50 L 115.37,250.50 L 117.03,239.00 C120.65,214.10 129.28,193.05 143.65,174.10 C146.32,170.58 149.14,166.83 149.92,165.78 C151.22,164.01 150.55,163.08 141.12,153.62 L 130.90,143.37 L 120.20,148.65 C106.33,155.50 96.89,157.47 81.55,156.73 C52.68,155.33 28.18,139.31 15.44,113.50 C9.00,100.43 7.54,93.96 7.55,78.50 C7.57,63.05 9.02,56.74 15.66,43.21 C23.14,28.00 37.55,14.16 53.42,6.96 C64.47,1.96 71.29,0.60 85.50,0.60 C101.00,0.60 107.28,2.04 121.00,8.74 C129.23,12.76 131.85,14.73 140.56,23.44 C149.27,32.15 151.24,34.77 155.26,43.00 C161.99,56.79 163.43,63.03 163.45,78.50 C163.46,93.51 162.04,100.15 156.14,112.50 C154.03,116.90 150.03,123.47 147.24,127.10 L 142.17,133.71 L 152.02,143.52 C161.11,152.57 162.02,153.22 163.78,151.92 C164.83,151.14 168.58,148.32 172.10,145.65 C191.31,131.08 217.99,120.44 240.41,118.41 L 248.00,117.72 L 248.00,107.49 L 248.00,97.25 L 244.87,96.62 C233.98,94.45 219.88,82.87 214.69,71.84 C201.64,44.12 218.78,11.87 249.25,6.82 C263.36,4.49 279.20,10.05 289.21,20.86 C306.21,39.22 306.03,65.61 288.77,83.64 C282.88,89.79 273.68,95.31 267.13,96.62 L 264.00,97.25 L 264.00,107.49 L 264.00,117.72 L 271.36,118.39 C296.13,120.64 321.85,131.38 344.30,148.85 L 350.09,153.37 L 359.96,143.54 L 369.83,133.71 L 364.86,127.23 C358.81,119.32 353.95,109.87 350.86,99.96 C348.90,93.70 348.53,90.32 348.52,79.00 C348.52,62.85 349.93,56.65 356.70,43.00 C360.74,34.86 362.85,32.06 371.46,23.44 C380.17,14.72 382.76,12.76 391.00,8.74 C404.72,2.04 411.00,0.60 426.50,0.60 C440.71,0.60 447.53,1.96 458.58,6.96 C474.45,14.16 488.86,28.00 496.34,43.21 C502.98,56.74 504.43,63.05 504.45,78.50 C504.46,93.96 503.00,100.43 496.56,113.50 C483.82,139.31 459.32,155.33 430.45,156.73 C415.11,157.47 405.67,155.50 391.80,148.65 L 381.10,143.37 L 370.86,153.64 L 360.63,163.91 L 365.18,169.70 C372.69,179.28 380.00,191.10 380.00,193.67 C380.00,197.02 375.76,201.00 372.20,201.00 C368.75,201.00 368.02,200.24 359.88,188.00 C341.56,160.49 310.46,140.28 277.61,134.55 C266.02,132.53 244.66,132.54 233.93,134.57 C208.25,139.44 186.19,150.96 167.95,169.00 C143.73,192.96 131.00,223.62 131.00,258.00 C131.00,290.25 142.16,319.13 163.83,343.00 L 169.74,349.50 L 170.44,345.36 C171.55,338.78 176.29,329.86 181.38,324.78 C187.32,318.83 198.55,313.20 211.82,309.50 C226.06,305.52 226.32,304.79 216.56,295.80 C203.87,284.11 195.59,270.58 192.97,257.26 C191.25,248.52 192.24,217.54 194.50,209.54 C196.73,201.60 201.27,191.73 203.89,189.11 C206.98,186.02 212.28,186.27 214.93,189.63 C217.65,193.10 217.59,193.60 213.54,202.05 C210.02,209.39 207.17,219.51 208.30,220.63 C208.64,220.98 211.27,219.14 214.15,216.56 C224.25,207.47 227.13,206.93 243.43,210.98 L 255.96,214.10 L 268.75,210.95 C284.54,207.06 286.99,207.47 296.62,215.64 C300.21,218.69 303.42,220.92 303.74,220.60 C304.86,219.47 301.82,208.90 298.40,202.06 C289.32,183.92 268.21,172.67 249.40,175.94 C245.81,176.57 240.67,177.95 237.98,179.01 C234.16,180.52 232.47,180.71 230.19,179.92 C227.44,178.96 225.00,175.51 225.00,172.59 C225.00,166.45 239.48,160.78 255.50,160.65 C287.23,160.39 312.73,182.59 318.46,215.45 C320.27,225.83 320.51,250.48 318.88,258.20 C316.18,270.96 307.74,284.47 295.30,295.93 C288.94,301.79 287.74,303.36 288.59,304.71 C289.18,305.65 294.77,307.91 301.56,309.97 C325.89,317.32 336.17,326.02 341.00,343.38 L 342.64,349.26 L 348.57,342.55 C364.78,324.22 375.48,302.41 379.45,279.61 C381.52,267.75 381.47,248.02 379.33,235.32 C377.99,227.33 377.87,224.59 378.77,222.59 C381.03,217.65 389.32,218.08 391.81,223.28 C392.53,224.79 393.91,231.53 394.88,238.26 L 396.64,250.50 L 406.43,250.50 L 416.23,250.50 L 417.99,244.80 C424.69,223.15 447.02,209.03 468.69,212.74 C493.63,217.01 511.16,240.70 507.18,264.75 C502.10,295.40 469.13,312.68 441.59,299.12 C430.51,293.66 419.41,280.01 417.41,269.39 L 416.78,266.00 L 406.59,266.00 L 396.39,266.00 L 395.16,275.87 C392.09,300.50 382.78,322.90 366.81,344.09 L 360.71,352.19 L 370.79,362.28 L 380.88,372.36 L 386.27,368.79 C399.90,359.74 410.96,356.03 426.58,355.27 C439.65,354.64 448.26,355.92 459.09,360.10 C489.63,371.87 509.00,400.36 509.00,433.50 C509.00,463.36 493.37,489.22 467.06,502.91 C427.07,523.71 378.54,506.91 359.48,465.66 C354.35,454.56 352.66,446.40 352.72,433.00 C352.80,415.79 356.63,403.27 366.21,388.92 L 370.29,382.81 L 360.20,372.71 L 350.11,362.62 L 344.30,367.14 C329.12,378.97 314.04,387.07 298.00,392.02 C288.07,395.08 273.13,398.00 267.37,398.00 L 264.00,398.00 L 264.00,408.29 L 264.00,418.59 L 269.75,420.36 C290.88,426.85 304.91,449.40 301.22,470.95 C299.46,481.16 295.64,488.46 288.05,496.05 C269.53,514.56 242.42,514.57 223.92,496.08 C209.43,481.58 206.13,461.66 215.18,443.29 C220.45,432.58 233.78,421.87 244.75,419.53 L 248.00,418.84 L 248.00,408.42 L 248.00,398.00 L 244.63,398.00 C238.87,398.00 223.93,395.08 214.00,392.02 C198.12,387.12 180.33,377.42 165.51,365.58 L 161.86,362.65 L 151.81,372.70 L 141.76,382.75 L 145.97,388.95 C155.36,402.78 159.43,416.39 159.30,433.50 C159.23,443.41 158.75,447.07 156.55,454.50 C146.83,487.31 119.03,509.35 84.81,511.38 C80.24,511.65 73.58,511.43 70.00,510.89 M 97.41,494.37 C104.01,492.69 115.91,487.01 117.92,484.60 C121.14,480.72 114.79,466.75 106.27,458.96 L 100.87,454.03 L 97.16,455.92 C90.71,459.21 81.89,460.44 74.76,459.03 C71.33,458.36 67.30,457.17 65.81,456.40 C61.63,454.24 60.30,454.64 54.95,459.64 C49.75,464.51 44.57,473.74 43.46,480.12 C42.89,483.35 43.15,483.97 45.89,485.92 C52.66,490.74 62.71,494.37 75.00,496.41 C79.05,497.09 91.03,495.99 97.41,494.37 M 443.79,495.43 C451.02,493.95 463.10,488.89 467.42,485.53 C469.28,484.08 469.29,483.85 467.60,477.77 C465.46,470.01 461.07,463.01 455.48,458.43 L 451.22,454.94 L 443.36,457.59 C436.77,459.81 434.35,460.15 428.39,459.71 C424.40,459.41 419.04,458.21 416.19,456.99 L 411.10,454.80 L 407.98,457.02 C403.26,460.38 397.39,468.34 395.07,474.54 C392.05,482.60 392.31,484.06 397.25,487.18 C411.25,496.02 427.13,498.83 443.79,495.43 M 269.42,491.58 C280.33,486.25 286.46,476.32 286.46,464.00 C286.46,455.23 284.29,449.54 278.52,443.16 C266.77,430.15 245.23,430.15 233.48,443.16 C210.81,468.25 239.13,506.40 269.42,491.58 M 35.41,460.00 C36.45,458.07 40.14,453.56 43.61,449.97 L 49.91,443.43 L 47.20,437.97 C44.78,433.08 44.50,431.40 44.50,422.00 C44.50,411.96 44.65,411.23 47.89,405.25 C52.01,397.65 58.24,391.72 65.82,388.16 C70.79,385.83 72.75,385.50 81.50,385.51 C90.55,385.51 92.05,385.79 97.27,388.43 C104.11,391.88 112.32,400.21 115.11,406.52 C119.68,416.84 119.45,429.23 114.53,438.94 L 112.21,443.51 L 118.60,449.87 C122.87,454.12 126.07,458.49 128.24,463.05 C130.03,466.81 131.95,469.78 132.50,469.66 C133.05,469.54 135.45,465.58 137.84,460.86 C146.92,442.93 146.95,423.37 137.94,405.10 C134.59,398.31 131.99,394.80 125.60,388.45 C112.59,375.52 99.12,369.78 81.50,369.67 C70.21,369.59 63.76,371.09 53.00,376.30 C36.91,384.09 23.95,400.03 19.52,417.46 C17.55,425.19 17.57,440.91 19.55,448.54 C21.33,455.42 24.97,463.75 28.13,468.19 L 30.33,471.27 L 31.93,467.39 C32.80,465.25 34.37,461.93 35.41,460.00 M 383.17,464.25 C385.25,459.98 388.92,454.97 393.13,450.63 L 399.80,443.77 L 397.35,438.89 C388.30,420.86 396.10,397.98 414.37,388.99 C434.23,379.21 458.17,388.83 466.01,409.75 C469.08,417.92 468.56,430.17 464.80,438.22 L 462.13,443.95 L 468.39,450.22 C472.40,454.25 475.92,459.07 478.22,463.69 C481.55,470.37 481.91,470.75 483.37,469.14 C485.87,466.39 491.67,453.00 492.89,447.20 C494.49,439.58 494.26,424.78 492.43,417.73 C486.49,394.79 468.70,377.42 445.01,371.41 C435.56,369.01 419.90,369.84 410.19,373.26 C390.14,380.33 373.91,398.30 368.87,419.00 C366.68,427.97 367.34,443.12 370.30,452.30 C372.30,458.50 378.55,471.00 379.65,471.00 C379.77,471.00 381.36,467.96 383.17,464.25 M 87.65,443.51 C93.43,441.79 99.47,436.47 101.76,431.09 C103.99,425.84 103.74,417.33 101.22,412.41 C96.78,403.75 88.99,399.47 78.98,400.19 C68.02,400.99 59.98,409.08 59.18,420.12 C58.61,428.12 60.87,433.84 66.61,438.89 C73.19,444.68 79.24,446.01 87.65,443.51 M 441.00,442.25 C444.14,440.60 447.47,437.77 449.35,435.17 C452.02,431.46 452.52,429.82 452.80,423.67 C453.11,417.03 452.89,416.10 449.82,411.04 C439.26,393.68 413.82,397.93 409.04,417.84 C406.70,427.60 411.97,438.22 421.31,442.56 C428.37,445.85 434.33,445.76 441.00,442.25 M 266.50,382.98 C285.88,381.18 303.89,375.47 319.25,366.25 L 327.00,361.60 L 327.00,354.98 C327.00,341.17 320.83,332.76 306.92,327.61 L 299.77,324.96 L 281.95,335.42 C272.15,341.17 262.30,346.43 260.06,347.10 C254.15,348.87 250.62,347.50 230.05,335.42 L 212.23,324.96 L 204.89,327.68 C199.42,329.71 196.22,331.69 192.37,335.45 C186.46,341.21 185.01,345.07 185.01,355.05 L 185.00,361.60 L 192.75,366.25 C210.35,376.81 226.22,381.38 254.00,383.86 C254.82,383.94 260.45,383.54 266.50,382.98 M 268.60,325.82 L 280.89,318.64 L 278.06,315.42 C276.51,313.65 275.05,311.66 274.84,311.01 C274.54,310.12 272.96,310.25 268.66,311.50 C265.48,312.42 259.78,313.18 256.00,313.18 C252.22,313.18 246.52,312.42 243.34,311.50 C239.04,310.25 237.46,310.12 237.16,311.01 C236.95,311.66 235.50,313.64 233.94,315.42 L 231.11,318.64 L 243.31,325.80 C250.01,329.74 255.68,332.97 255.90,332.98 C256.13,332.99 261.84,329.77 268.60,325.82 M 267.55,295.86 C282.77,290.27 297.66,274.86 302.91,259.28 C305.67,251.06 305.88,238.20 303.25,237.42 C298.63,236.04 292.16,232.09 287.37,227.70 L 282.07,222.87 L 272.29,225.59 C266.25,227.27 260.01,228.31 256.00,228.31 C251.99,228.31 245.75,227.27 239.71,225.59 L 229.93,222.87 L 224.26,228.04 C219.22,232.65 214.03,235.78 208.75,237.40 C206.13,238.21 206.33,251.06 209.09,259.28 C213.65,272.84 226.26,287.06 239.49,293.58 C250.75,299.13 257.23,299.66 267.55,295.86 M 62.56,286.08 C68.76,283.34 74.40,277.96 77.82,271.50 C80.09,267.22 80.47,265.27 80.47,258.00 C80.47,250.73 80.09,248.78 77.82,244.50 C71.94,233.39 62.37,227.55 50.00,227.52 C43.80,227.50 41.52,227.98 36.84,230.28 C12.06,242.45 14.15,277.87 40.20,287.17 C46.87,289.55 55.68,289.12 62.56,286.08 M 475.42,285.58 C486.32,280.25 492.40,270.38 492.40,258.00 C492.40,245.52 486.34,235.77 475.16,230.28 C470.48,227.98 468.20,227.50 462.00,227.52 C449.63,227.55 440.06,233.39 434.18,244.50 C431.91,248.78 431.53,250.73 431.53,258.00 C431.52,264.97 431.95,267.31 433.87,271.00 C442.14,286.88 459.98,293.14 475.42,285.58 M 101.26,140.06 C109.36,137.99 115.57,135.22 120.65,131.41 C123.63,129.18 123.75,128.84 122.89,124.98 C121.27,117.80 117.73,111.65 111.77,105.65 C107.40,101.25 105.53,99.99 104.23,100.55 C90.61,106.47 80.39,106.47 66.77,100.55 C65.47,99.99 63.60,101.25 59.23,105.65 C53.27,111.65 49.73,117.80 48.11,124.98 C47.25,128.84 47.37,129.18 50.35,131.41 C63.03,140.91 84.00,144.47 101.26,140.06 M 442.26,140.06 C450.36,137.99 456.57,135.22 461.65,131.41 C464.63,129.18 464.75,128.84 463.89,124.98 C462.27,117.80 458.73,111.65 452.77,105.65 C448.40,101.25 446.53,99.99 445.23,100.55 C431.61,106.47 421.39,106.47 407.77,100.55 C406.47,99.99 404.60,101.25 400.23,105.65 C394.27,111.65 390.73,117.80 389.11,124.98 C388.25,128.84 388.37,129.18 391.35,131.41 C404.03,140.91 425.00,144.47 442.26,140.06 M 37.86,109.48 C39.89,105.16 43.22,100.61 47.78,95.94 C53.84,89.75 54.50,88.71 53.34,87.21 C52.61,86.27 51.05,82.41 49.87,78.63 C44.17,60.31 53.96,39.84 71.75,32.90 C79.71,29.80 91.29,29.80 99.25,32.90 C117.04,39.84 126.83,60.31 121.13,78.63 C119.95,82.41 118.39,86.27 117.66,87.21 C116.50,88.71 117.16,89.75 123.22,95.94 C127.78,100.61 131.11,105.16 133.14,109.48 C134.82,113.07 136.57,115.77 137.03,115.48 C138.71,114.44 143.87,104.36 145.97,98.00 C155.51,69.21 141.33,35.56 114.00,22.14 C94.92,12.77 76.10,12.74 57.22,22.05 C42.30,29.40 30.98,42.40 25.29,58.72 C22.97,65.39 22.58,68.14 22.54,78.00 C22.50,89.51 23.49,95.10 27.09,103.64 C28.86,107.83 33.70,116.00 34.42,116.00 C34.63,116.00 36.18,113.07 37.86,109.48 M 378.86,109.48 C380.89,105.16 384.22,100.61 388.78,95.94 C394.84,89.75 395.50,88.71 394.34,87.21 C393.61,86.27 392.05,82.41 390.87,78.63 C385.17,60.31 394.96,39.84 412.75,32.90 C420.71,29.80 432.29,29.80 440.25,32.90 C458.04,39.84 467.83,60.31 462.13,78.63 C460.95,82.41 459.39,86.27 458.66,87.21 C457.50,88.71 458.16,89.75 464.22,95.94 C468.78,100.61 472.11,105.16 474.14,109.48 C475.82,113.07 477.57,115.77 478.03,115.48 C479.71,114.44 484.87,104.36 486.97,98.00 C490.06,88.69 490.71,75.31 488.56,65.63 C480.92,31.30 447.45,9.39 413.50,16.50 C398.26,19.69 382.07,30.65 373.47,43.62 C362.47,60.19 360.01,83.76 367.39,101.91 C369.53,107.18 374.56,116.00 375.42,116.00 C375.63,116.00 377.18,113.07 378.86,109.48 M 95.69,87.47 C106.28,82.19 110.77,69.70 105.92,59.00 C101.83,49.99 95.13,45.59 85.50,45.59 C75.87,45.59 69.17,49.99 65.08,59.00 C58.53,73.46 69.42,90.00 85.50,90.00 C88.96,90.00 92.25,89.18 95.69,87.47 M 436.69,87.47 C447.28,82.19 451.77,69.70 446.92,59.00 C442.83,49.99 436.13,45.59 426.50,45.59 C416.24,45.59 407.67,51.96 404.97,61.61 C399.71,80.40 419.12,96.22 436.69,87.47 M 268.56,80.08 C279.84,75.11 286.43,64.76 286.45,52.00 C286.46,43.23 284.30,37.55 278.52,31.16 C266.80,18.18 245.20,18.18 233.48,31.16 C227.71,37.54 225.54,43.23 225.54,52.00 C225.54,60.89 228.06,67.39 233.80,73.33 C242.79,82.64 256.65,85.34 268.56,80.08 Z" fill="rgba(0,0,0,1)"/>
</g>
</svg>